<?xml version="1.0" standalone="no"?>
<!DOCTYPE svg PUBLIC "-//W3C//DTD SVG 20010904//EN"
 "http://www.w3.org/TR/2001/REC-SVG-20010904/DTD/svg10.dtd">
<svg version="1.0" xmlns="http://www.w3.org/2000/svg"
 width="1472.000000pt" height="832.000000pt" viewBox="0 0 1472.000000 832.000000"
 preserveAspectRatio="xMidYMid meet">

<g transform="translate(0.000000,832.000000) scale(0.100000,-0.100000)"
fill="#000000" stroke="none">
<path d="M7650 6294 c-30 -31 -122 -110 -205 -175 -82 -66 -162 -129 -177
-142 -15 -13 -58 -30 -102 -41 -41 -10 -121 -41 -178 -69 l-102 -52 -32 -87
c-62 -170 -117 -231 -221 -244 -45 -5 -62 -13 -85 -37 l-28 -31 -33 32 c-18
18 -41 32 -51 32 -17 0 -18 -6 -11 -67 9 -83 24 -114 83 -175 56 -58 88 -67
62 -17 -16 30 13 35 55 10 42 -25 65 -27 65 -6 0 64 33 79 113 51 35 -13 37
-13 37 8 0 12 7 32 16 45 14 19 23 22 50 18 28 -5 34 -3 34 12 0 28 33 51 72
51 20 0 55 7 78 15 23 8 44 15 47 15 12 0 -15 -25 -80 -74 -87 -66 -233 -208
-253 -248 -14 -27 -17 -28 -66 -22 l-51 7 7 -29 c15 -59 120 -204 148 -204 5
0 6 19 2 45 -7 52 10 67 48 41 12 -9 31 -16 41 -16 17 0 17 1 1 30 -17 28 -17
30 0 49 28 31 63 35 102 10 19 -12 38 -19 41 -15 3 3 0 23 -7 45 -14 42 -8 61
18 61 9 0 25 14 34 30 20 34 46 38 101 15 43 -18 56 -5 32 31 -16 24 -15 27 1
45 24 26 93 26 127 -1 29 -23 37 -25 37 -9 0 29 35 78 69 97 50 28 105 28 161
0 67 -34 90 -75 90 -162 -1 -127 -67 -253 -210 -397 -101 -101 -183 -159 -398
-282 -172 -98 -278 -174 -372 -267 -140 -138 -229 -278 -272 -427 -30 -103
-32 -306 -4 -398 61 -203 237 -387 436 -456 98 -34 226 -31 401 9 214 50 301
41 315 -34 17 -92 -29 -214 -103 -270 -23 -18 -68 -43 -100 -55 -54 -22 -73
-24 -248 -24 l-190 0 -107 37 c-200 69 -323 143 -437 264 -119 126 -174 248
-217 482 -3 12 -8 22 -12 22 -4 0 -52 -33 -107 -74 -54 -41 -102 -73 -105 -71
-4 2 -7 38 -8 79 -1 74 0 76 36 107 34 30 35 32 17 45 -41 30 -140 5 -166 -42
-9 -18 -10 -38 -2 -80 10 -55 9 -56 -22 -90 -20 -21 -42 -34 -57 -34 l-24 0 4
-122 4 -123 57 -65 c31 -35 210 -220 397 -410 l342 -345 585 0 585 0 57 54 57
54 53 -6 54 -5 75 64 76 65 0 483 0 484 -25 16 c-19 12 -25 25 -25 51 l0 35
-491 0 -491 0 -77 74 c-42 40 -88 84 -103 96 l-28 24 0 232 c0 128 -3 239 -6
248 -3 9 -12 16 -20 16 -35 0 2 41 50 57 21 6 32 18 38 39 15 56 75 73 104 29
37 -57 -21 -124 -84 -96 -48 23 -52 4 -52 -260 l0 -238 85 -82 c47 -45 93 -88
104 -95 15 -11 122 -14 528 -14 437 -1 513 -3 531 -16 26 -18 29 -65 7 -84
-13 -11 -15 -81 -15 -516 l0 -503 -90 -80 c-49 -45 -92 -81 -94 -81 -2 0 -20
7 -39 15 -34 14 -37 14 -69 -13 -18 -15 -44 -39 -58 -54 l-25 -28 -623 -1
c-633 -1 -671 1 -643 35 6 7 -81 103 -270 296 -153 157 -327 336 -387 399
l-107 114 -4 130 c-2 101 0 131 10 138 11 7 7 22 -20 73 -35 65 -43 123 -25
178 6 20 5 21 -10 9 -9 -7 -34 -40 -56 -73 -49 -74 -52 -118 -13 -191 27 -49
27 -50 8 -61 -10 -6 -32 -24 -48 -39 -25 -23 -28 -33 -23 -60 17 -82 17 -95 2
-125 -19 -37 -44 -52 -85 -52 -22 0 -38 10 -64 41 l-35 40 -6 -29 c-15 -65 35
-192 86 -218 37 -19 55 -18 94 7 45 27 54 21 157 -103 204 -248 449 -442 714
-564 211 -97 498 -142 828 -130 324 11 557 66 793 185 74 37 205 135 258 193
124 134 205 320 220 508 l7 77 -33 6 c-73 15 -105 9 -130 -25 -23 -31 -23 -31
-16 -246 6 -171 5 -213 -6 -210 -21 7 -26 47 -27 239 -1 184 -1 186 -26 209
-31 29 -33 72 -5 100 27 27 52 25 80 -5 21 -22 32 -25 92 -25 l69 0 -7 58
c-27 224 -170 442 -347 530 -106 52 -185 68 -421 82 -195 12 -258 26 -302 69
-78 76 -73 253 12 409 69 127 122 183 234 251 30 18 74 49 97 67 58 47 66 45
61 -21 l-3 -56 28 33 c28 34 70 116 103 203 11 27 27 51 36 53 22 4 68 -44 75
-79 16 -83 53 31 53 166 0 90 2 104 21 121 20 18 22 18 51 1 41 -23 51 -13 46
44 -3 33 -18 69 -46 116 -47 78 -53 116 -21 134 27 14 86 5 110 -17 27 -25 36
-14 26 35 -9 43 -51 93 -155 185 -28 24 -33 35 -30 65 3 34 5 36 42 39 21 2
56 -4 77 -12 22 -9 44 -16 49 -16 16 0 -18 58 -60 104 -47 50 -80 69 -178 96
-83 24 -112 47 -112 90 0 30 0 30 72 45 10 1 36 -1 59 -6 23 -5 44 -8 46 -5 3
2 -12 23 -33 46 -90 100 -185 111 -354 41 -217 -90 -270 -111 -285 -111 -29 0
-15 20 28 40 250 113 313 144 342 165 18 14 55 37 81 50 55 27 39 33 -26 10
-54 -19 -60 -19 -60 4 0 10 24 37 58 63 100 80 206 200 252 288 15 29 21 32
-113 -70 -117 -89 -203 -133 -332 -170 -60 -18 -122 -39 -137 -46 -41 -21 -36
-50 10 -64 39 -13 59 -26 51 -34 -7 -7 -241 -47 -246 -43 -2 3 25 38 59 80 83
99 148 182 185 237 40 59 85 150 75 150 -4 0 -32 -25 -62 -56z m-538 -561
c-56 -79 -187 -181 -207 -162 -2 3 5 29 15 59 23 69 65 106 134 118 80 15 79
15 58 -15z m245 21 c-3 -3 -12 -4 -19 -1 -8 3 -5 6 6 6 11 1 17 -2 13 -5z
m407 -102 c12 -10 39 -24 62 -30 30 -9 61 -33 121 -95 l81 -83 7 -81 c6 -62
12 -86 27 -99 17 -16 19 -32 18 -192 -1 -95 1 -176 4 -179 12 -12 5 -61 -9
-67 -8 -3 -15 -14 -15 -23 0 -10 -16 -52 -35 -92 -28 -58 -33 -76 -24 -88 9
-10 9 -17 2 -24 -15 -15 -54 -7 -67 14 -9 14 -6 21 16 40 29 23 88 150 88 188
0 12 -7 30 -16 40 -18 20 -11 59 12 59 11 0 14 24 14 128 0 122 -1 128 -22
137 -22 9 -23 17 -26 122 l-3 112 -72 65 c-101 92 -125 103 -176 86 -47 -15
-71 -3 -71 34 0 46 47 61 84 28z m-970 -1538 c9 -8 17 -21 17 -27 2 -24 -3
-52 -12 -61 -5 -6 -9 -116 -9 -246 l0 -235 113 -112 112 -113 450 -6 c353 -5
456 -10 477 -21 57 -28 57 -30 59 -387 l1 -329 -100 -91 c-55 -50 -105 -103
-112 -118 -10 -23 -19 -28 -46 -28 -22 0 -44 -9 -66 -28 -77 -67 -38 -62 -539
-62 l-457 0 -122 128 c-68 70 -237 243 -376 385 -251 255 -273 284 -244 313 6
6 6 20 -2 40 -13 36 -4 82 18 91 9 3 20 0 25 -8 11 -18 11 -62 0 -74 -10 -11
-14 -36 -12 -73 1 -17 70 -94 229 -255 126 -128 284 -291 352 -364 68 -73 130
-135 137 -137 10 -4 655 -9 880 -6 35 0 106 53 135 101 13 22 25 29 48 29 22
0 42 12 77 48 27 26 69 67 96 90 l47 43 -2 317 -3 316 -34 23 -34 23 -446 0
-446 0 -127 127 -128 128 0 232 0 232 -25 25 c-29 29 -31 52 -9 84 18 26 56
29 78 6z"/>
<path d="M4147 5860 c-453 -41 -1082 -204 -1357 -353 -61 -33 -172 -108 -167
-113 4 -4 323 73 362 87 93 35 414 124 565 158 544 123 973 141 1415 60 196
-36 383 -95 363 -114 -3 -3 -37 -11 -74 -16 -264 -37 -903 -206 -1146 -303
-37 -15 -73 -24 -79 -20 -7 4 -9 3 -6 -2 3 -6 -24 -23 -61 -39 -205 -88 -517
-258 -642 -352 -39 -29 -76 -50 -82 -47 -6 4 -8 3 -5 -3 3 -5 -19 -30 -50 -54
-31 -24 -79 -66 -107 -94 -52 -50 -168 -197 -161 -203 2 -2 32 20 67 48 69 56
171 120 192 120 8 0 20 8 27 17 10 11 10 14 2 9 -33 -19 -7 5 50 46 83 61 166
110 177 103 5 -3 12 0 16 6 4 8 3 9 -4 5 -7 -4 -12 -5 -12 -3 0 6 154 97 164
97 4 0 4 -5 0 -12 -4 -7 -3 -8 5 -4 6 4 8 12 5 18 -5 8 -1 9 10 5 9 -4 15 -3
12 1 -3 5 8 16 25 26 16 9 29 14 29 10 0 -4 8 0 18 8 20 18 356 164 452 197
36 12 92 33 125 46 82 32 271 87 445 129 181 44 528 106 593 106 l50 0 -26
-20 c-14 -11 -28 -20 -30 -20 -22 0 -320 -203 -379 -257 -16 -15 -31 -22 -39
-18 -7 5 -10 4 -6 -1 3 -6 -15 -28 -41 -50 -103 -87 -217 -190 -225 -202 -5
-7 -34 -40 -65 -73 -30 -33 -75 -86 -99 -117 -24 -31 -50 -65 -58 -75 -8 -9
-36 -49 -61 -87 -26 -38 -50 -67 -55 -64 -5 3 -6 -3 -2 -12 5 -13 3 -15 -7 -9
-10 6 -12 4 -7 -7 3 -9 2 -19 -3 -24 -10 -11 -102 -176 -141 -254 -44 -87 -94
-318 -115 -525 -3 -38 -4 -68 -1 -65 2 3 25 57 50 121 67 172 99 230 157 282
28 25 46 48 40 52 -5 3 -13 0 -16 -9 -3 -8 -12 -12 -20 -9 -9 3 -14 -2 -14
-16 0 -12 -4 -21 -9 -21 -5 0 -2 23 7 50 11 34 19 46 24 38 6 -9 8 -4 6 12 -1
14 4 36 12 50 8 14 28 52 46 85 18 33 38 59 44 57 6 -1 9 2 5 8 -9 14 14 52
27 44 7 -4 8 -3 4 4 -5 9 56 116 96 167 4 6 34 44 66 85 90 116 300 328 310
312 6 -9 13 -7 28 10 16 19 16 20 1 9 -9 -8 -20 -12 -22 -9 -10 10 105 100
120 94 9 -3 12 0 9 9 -7 17 116 117 136 110 8 -4 11 -3 8 0 -8 9 118 115 136
115 3 0 36 19 73 42 86 52 164 89 175 81 18 -11 28 -53 18 -79 -7 -16 -7 -23
0 -19 6 3 10 13 10 21 0 16 18 18 40 4 12 -8 13 -13 3 -30 -7 -11 -12 -30 -12
-42 1 -19 3 -17 9 7 6 22 8 7 9 -52 2 -126 46 -297 101 -391 11 -18 16 -30 10
-27 -6 3 -7 -1 -4 -9 3 -9 9 -14 13 -12 4 3 16 -12 26 -32 11 -20 22 -39 25
-42 3 -3 22 -26 43 -53 59 -72 133 -146 226 -223 114 -93 304 -234 316 -234 6
0 30 32 55 72 25 39 75 101 111 138 l67 67 -111 34 c-226 68 -452 203 -561
335 -168 204 -216 498 -108 659 18 26 66 66 138 114 60 40 120 88 132 105 32
47 30 115 -4 155 -34 40 -44 39 -42 -4 2 -46 -26 -83 -86 -114 -79 -41 -130
-39 -301 12 -270 81 -448 122 -690 158 -159 23 -615 34 -788 19z"/>
<path d="M9985 5859 c-228 -18 -575 -87 -840 -166 -82 -24 -171 -47 -196 -50
-119 -14 -268 95 -229 167 10 19 10 20 -7 12 -51 -28 -78 -87 -63 -141 12 -46
52 -83 165 -154 110 -68 146 -105 179 -179 91 -205 28 -450 -160 -629 -101
-95 -197 -151 -477 -278 -413 -187 -652 -343 -727 -475 -34 -58 -39 -110 -12
-125 9 -5 109 -11 222 -14 151 -3 221 -9 265 -22 152 -42 275 -130 376 -265
l51 -69 44 90 c54 110 140 206 222 246 108 53 288 41 429 -29 72 -35 183 -133
240 -211 l38 -52 12 150 c13 167 23 214 65 299 53 107 170 193 292 215 84 15
211 14 281 -4 33 -8 107 -38 165 -67 88 -44 119 -66 192 -138 96 -95 115 -127
179 -313 21 -60 41 -112 44 -116 7 -6 2 57 -16 224 -5 50 -22 140 -37 200 -46
188 -33 382 35 507 36 66 108 130 178 156 140 54 430 48 628 -13 69 -21 182
-82 241 -131 28 -24 53 -41 55 -38 8 8 -69 110 -189 249 -121 140 -232 303
-277 404 -30 67 -40 164 -23 216 20 59 88 121 156 141 110 32 419 2 602 -57
57 -19 47 -2 -29 47 -275 178 -915 356 -1473 409 -168 16 -433 18 -601 4z
m-772 -631 c9 -18 33 -62 53 -98 20 -36 56 -110 82 -165 25 -55 49 -102 53
-105 11 -8 11 -18 10 -307 -1 -215 -4 -274 -15 -285 -7 -7 -28 -26 -47 -42
-19 -16 -61 -55 -95 -88 l-61 -60 -582 2 -581 1 -10 -25 c-9 -24 -37 -46 -59
-46 -34 0 -64 74 -43 107 14 22 58 33 78 19 15 -10 148 -15 593 -19 l575 -6
98 96 98 97 0 249 0 249 -40 102 c-23 55 -67 155 -99 221 -32 66 -57 123 -54
128 10 16 30 5 46 -25z m212 -1252 c19 -29 11 -72 -17 -87 -31 -17 -71 -7 -85
21 -10 20 -22 26 -65 31 -79 10 -1269 5 -1296 -5 -22 -8 -23 -6 -20 20 l3 29
692 0 c380 0 695 3 699 8 4 4 22 7 40 7 24 0 38 -7 49 -24z"/>
<path d="M4758 5293 c7 -3 16 -2 19 1 4 3 -2 6 -13 5 -11 0 -14 -3 -6 -6z"/>
<path d="M5473 5187 c-3 -5 0 -14 6 -20 9 -9 10 -7 5 7 -5 13 -4 17 4 12 6 -3
13 -3 16 2 3 5 -2 9 -10 9 -8 0 -17 -4 -21 -10z"/>
<path d="M4248 5163 c7 -3 16 -2 19 1 4 3 -2 6 -13 5 -11 0 -14 -3 -6 -6z"/>
<path d="M5536 5153 c-6 -14 -5 -15 5 -6 7 7 10 15 7 18 -3 3 -9 -2 -12 -12z"/>
<path d="M4034 5084 c-18 -14 -18 -15 4 -4 12 6 22 13 22 15 0 8 -5 6 -26 -11z"/>
<path d="M3169 4763 c-13 -16 -12 -17 4 -4 9 7 17 15 17 17 0 8 -8 3 -21 -13z"/>
<path d="M3658 4673 c7 -3 16 -2 19 1 4 3 -2 6 -13 5 -11 0 -14 -3 -6 -6z"/>
<path d="M3748 4663 c6 -2 18 -2 25 0 6 3 1 5 -13 5 -14 0 -19 -2 -12 -5z"/>
<path d="M5475 4180 c10 -11 20 -20 23 -20 3 0 -3 9 -13 20 -10 11 -20 20 -23
20 -3 0 3 -9 13 -20z"/>
<path d="M4878 4183 c6 -2 18 -2 25 0 6 3 1 5 -13 5 -14 0 -19 -2 -12 -5z"/>
<path d="M5010 4146 c0 -2 7 -7 16 -10 8 -3 12 -2 9 4 -6 10 -25 14 -25 6z"/>
<path d="M5540 4120 c0 -5 5 -10 11 -10 5 0 7 5 4 10 -3 6 -8 10 -11 10 -2 0
-4 -4 -4 -10z"/>
<path d="M4279 4023 c-13 -16 -12 -17 4 -4 16 13 21 21 13 21 -2 0 -10 -8 -17
-17z"/>
<path d="M4210 4010 c0 -5 5 -10 10 -10 6 0 10 5 10 10 0 6 -4 10 -10 10 -5 0
-10 -4 -10 -10z"/>
<path d="M5365 3870 c-3 -6 1 -7 9 -4 18 7 21 14 7 14 -6 0 -13 -4 -16 -10z"/>
<path d="M5410 3730 c-8 -5 -12 -12 -9 -15 4 -3 12 1 19 10 14 17 11 19 -10 5z"/>
<path d="M5335 3658 l-50 -53 53 50 c48 46 57 55 49 55 -1 0 -25 -24 -52 -52z"/>
<path d="M6122 3690 c7 -10 14 -18 15 -16 6 6 -9 36 -18 36 -5 0 -4 -9 3 -20z"/>
<path d="M6217 3675 c3 -22 7 -42 9 -44 8 -9 2 45 -6 64 -7 14 -8 8 -3 -20z"/>
<path d="M6206 3602 c-6 -18 -11 -21 -21 -12 -7 6 -1 -18 13 -54 20 -47 28
-59 30 -43 2 12 -1 23 -6 25 -5 1 -7 12 -4 24 3 14 1 19 -6 14 -15 -9 -16 6
-1 21 6 6 9 19 7 29 -4 17 -5 16 -12 -4z"/>
<path d="M5236 3583 c-6 -14 -5 -15 5 -6 7 7 10 15 7 18 -3 3 -9 -2 -12 -12z"/>
<path d="M5255 3574 c-9 -14 -15 -27 -13 -30 2 -2 12 10 22 26 21 37 15 40 -9
4z"/>
</g>
</svg>
